<svg width="60" height="70" viewBox="0 0 60 70" fill="none" xmlns="http://www.w3.org/2000/svg">
<g clip-path="url(#clip0)">
<path d="M4.18514 25.343C6.49283 25.343 8.37027 26.9781 8.37027 28.9878V66.1508C8.37027 68.1605 6.49283 69.7956 4.18514 69.7956C1.87744 69.7615 0 68.1265 0 66.1167V28.9878C0 26.9781 1.87744 25.343 4.18514 25.343Z" fill="#1EF4C4"/>
<path d="M22.1383 12.5693C24.446 12.5693 26.3234 14.2044 26.3234 16.2141V38.0146C26.3234 40.0243 24.446 41.6594 22.1383 41.6594C19.8306 41.6594 17.9531 40.0243 17.9531 38.0146V16.2141C17.9922 14.1703 19.8306 12.5693 22.1383 12.5693Z" fill="#6F4BE0"/>
<path d="M39.8175 16.657C42.1252 16.657 44.0026 18.292 44.0026 20.3018V26.6716C44.0026 28.6813 42.1252 30.3163 39.8175 30.3163C37.5098 30.3163 35.6323 28.6813 35.6323 26.6716V20.2677C35.6323 18.258 37.5098 16.657 39.8175 16.657Z" fill="#FF526B"/>
<path d="M39.8175 36.7202C42.1252 36.7202 44.0026 38.3552 44.0026 40.365V66.3893C44.0026 68.399 42.1252 70.0341 39.8175 70.0341C37.5098 70.0341 35.6323 68.399 35.6323 66.3893V40.365C35.6323 38.3212 37.5098 36.7202 39.8175 36.7202Z" fill="#1EF4C4"/>
<path d="M55.8538 36.7202C58.1615 36.7202 60.039 38.3552 60.039 40.365V66.3893C60.039 68.399 58.1615 70.0341 55.8538 70.0341C53.5461 70.0341 51.6687 68.399 51.6687 66.3893V40.365C51.6687 38.3212 53.5461 36.7202 55.8538 36.7202Z" fill="#6F4BE0"/>
<path d="M55.8538 0C58.1615 0 60.039 1.63504 60.039 3.64477V29.6691C60.039 31.6788 58.1615 33.3139 55.8538 33.3139C53.5461 33.3139 51.6687 31.6788 51.6687 29.6691V3.64477C51.6687 1.63504 53.5461 0 55.8538 0Z" fill="#1EF4C4"/>
<path d="M22.1383 45.6787C24.446 45.6787 26.3234 47.3137 26.3234 49.3235V66.1507C26.3234 68.1605 24.446 69.7955 22.1383 69.7955C19.8306 69.7955 17.9531 68.1605 17.9531 66.1507V49.3235C17.9922 47.3137 19.8306 45.6787 22.1383 45.6787Z" fill="#FF526B"/>
</g>
<defs>
<clipPath id="clip0">
<rect width="60" height="70" fill="white"/>
</clipPath>
</defs>
</svg>
