<svg width="60" height="70" viewBox="0 0 60 70" fill="none" xmlns="http://www.w3.org/2000/svg">
<g clip-path="url(#clip0)">
<path d="M50.031 12.6121C51.6864 12.6121 53.0475 14.0025 53.0475 15.6937V29.8991C53.0475 31.5902 51.6864 32.9807 50.031 32.9807C48.3755 32.9807 47.0144 31.5902 47.0144 29.8991V15.6937C47.0512 13.965 48.3755 12.6121 50.031 12.6121Z" fill="#6F4BE0"/>
<path d="M60.0002 22.7964C60.0002 24.4876 58.6391 25.8781 56.9836 25.8781H43.0781C41.4226 25.8781 40.0615 24.4876 40.0615 22.7964C40.0615 21.1053 41.4226 19.7148 43.0781 19.7148H56.9836C58.6758 19.7148 60.0002 21.1053 60.0002 22.7964Z" fill="#6F4BE0"/>
<path d="M10.8159 48.5767C12.2874 48.5767 13.4646 49.7792 13.4646 51.2825V63.9095C13.4646 65.4127 12.2874 66.6153 10.8159 66.6153C9.34443 66.6153 8.16724 65.4127 8.16724 63.9095V51.2825C8.16724 49.7792 9.34443 48.5767 10.8159 48.5767Z" fill="#6F4BE0"/>
<path d="M19.6815 57.5959C19.6815 59.0992 18.5043 60.3017 17.0328 60.3017H4.6355C3.16401 60.3017 1.98682 59.0992 1.98682 57.5959C1.98682 56.0927 3.16401 54.8901 4.6355 54.8901H16.996C18.4675 54.8901 19.6815 56.0927 19.6815 57.5959Z" fill="#6F4BE0"/>
<path d="M45.9846 64.2729C46.4261 64.2729 46.7939 64.6488 46.7939 65.0997V68.8953C46.7939 69.3463 46.4261 69.7221 45.9846 69.7221C45.5432 69.7221 45.1753 69.3463 45.1753 68.8953V65.0997C45.1753 64.6488 45.5432 64.2729 45.9846 64.2729Z" fill="#FF526B"/>
<path d="M48.6332 66.9789C48.6332 67.4298 48.2654 67.8056 47.8239 67.8056H44.1084C43.6669 67.8056 43.2991 67.4298 43.2991 66.9789C43.2991 66.5279 43.6669 66.1521 44.1084 66.1521H47.8239C48.3021 66.1897 48.6332 66.5279 48.6332 66.9789Z" fill="#FF526B"/>
<path d="M5.84928 0.636475C6.80575 0.636475 7.61507 1.42567 7.61507 2.44034V10.7832C7.61507 11.7603 6.84254 12.5871 5.84928 12.5871C4.89282 12.5871 4.0835 11.7979 4.0835 10.7832V2.44034C4.0835 1.42567 4.89282 0.636475 5.84928 0.636475Z" fill="#FF526B"/>
<path d="M11.6986 6.61173C11.6986 7.58882 10.9261 8.41559 9.9328 8.41559H1.76603C0.809564 8.41559 0.000244141 7.6264 0.000244141 6.61173C0.000244141 5.63463 0.772776 4.80786 1.76603 4.80786H9.9328C10.9261 4.80786 11.6986 5.63463 11.6986 6.61173Z" fill="#FF526B"/>
<path d="M17.1994 36.0422C19.3733 36.0422 21.1357 34.2419 21.1357 32.0211C21.1357 29.8003 19.3733 28 17.1994 28C15.0255 28 13.2632 29.8003 13.2632 32.0211C13.2632 34.2419 15.0255 36.0422 17.1994 36.0422Z" fill="#1EF4C4"/>
<path d="M42.0846 56.4685C46.5544 56.4685 50.1778 52.767 50.1778 48.2008C50.1778 43.6347 46.5544 39.9331 42.0846 39.9331C37.6149 39.9331 33.9915 43.6347 33.9915 48.2008C33.9915 52.767 37.6149 56.4685 42.0846 56.4685Z" fill="#1EF4C4"/>
<path d="M32.4859 14.0853C35.7773 14.0853 38.4454 11.3596 38.4454 7.99723C38.4454 4.63489 35.7773 1.90918 32.4859 1.90918C29.1945 1.90918 26.5264 4.63489 26.5264 7.99723C26.5264 11.3596 29.1945 14.0853 32.4859 14.0853Z" fill="#1EF4C4"/>
</g>
<defs>
<clipPath id="clip0">
<rect width="60" height="70" fill="white"/>
</clipPath>
</defs>
</svg>
