<svg width="60" height="70" viewBox="0 0 60 70" fill="none" xmlns="http://www.w3.org/2000/svg">
<g clip-path="url(#clip0)">
<path d="M47.0208 21.2161C48.9594 21.2161 50.5366 22.8377 50.5366 24.8309V55.0674C50.5366 57.0607 48.9594 58.6823 47.0208 58.6823C45.0821 58.6823 43.5049 57.0607 43.5049 55.0674V24.7971C43.5377 22.8039 45.115 21.2161 47.0208 21.2161Z" fill="#FF526B"/>
<path d="M30.0657 21.2161C32.0044 21.2161 33.5816 22.8377 33.5816 24.8309V55.0674C33.5816 57.0607 32.0044 58.6823 30.0657 58.6823C28.127 58.6823 26.5498 57.0607 26.5498 55.0674V24.7971C26.5498 22.8039 28.127 21.2161 30.0657 21.2161Z" fill="#1EF4C4"/>
<path d="M13.0779 21.2161C15.0166 21.2161 16.5938 22.8377 16.5938 24.8309V55.0674C16.5938 57.0607 15.0166 58.6823 13.0779 58.6823C11.1392 58.6823 9.56201 57.0607 9.56201 55.0674V24.7971C9.56201 22.8039 11.1392 21.2161 13.0779 21.2161Z" fill="#6F4BE0"/>
<path d="M60.0001 66.3853C60.0001 68.3786 58.4228 70.0002 56.4842 70.0002H3.64737C1.67585 70.0002 0.0986328 68.3786 0.0986328 66.3515C0.0986328 64.3921 1.64299 62.8042 3.5488 62.8042H56.4513C58.4228 62.7704 60.0001 64.3921 60.0001 66.3853Z" fill="#1EF4C4"/>
<path d="M28.7523 0.405405C28.7523 0.405405 4.37119 9.52703 1.38104 10.6419C1.11817 10.7432 0.855305 10.8784 0.691012 11.1149C-0.754771 12.8041 0.198131 17.027 2.39966 17.027C16.1017 17.0608 44.0316 17.0608 57.7337 17.0608C58.5223 17.0608 59.1467 16.5203 59.5738 15.7432C60.691 13.6487 59.6395 11.0135 57.438 10.2027L31.381 0.405405C30.5596 -0.135135 29.541 -0.135135 28.7523 0.405405Z" fill="#1EF4C4"/>
</g>
<defs>
<clipPath id="clip0">
<rect width="60" height="70" fill="white"/>
</clipPath>
</defs>
</svg>
