<svg width="20" height="20" viewBox="0 0 20 20" fill="none" xmlns="http://www.w3.org/2000/svg">
<g clip-path="url(#clip0)">
<path d="M15.0002 5.00021C14.3253 4.32522 13.5385 3.80302 12.6604 3.44666C11.813 3.10334 10.9182 2.92865 9.99999 2.92912C9.08231 2.92912 8.18698 3.10334 7.33963 3.44666C6.462 3.80255 5.67475 4.32522 5.00022 4.99974C4.32523 5.67474 3.80304 6.46152 3.44714 7.33915C3.3032 7.69364 3.18907 8.05746 3.10475 8.42687C2.98829 8.94022 2.92914 9.46613 2.92914 9.99998C2.92914 10.9177 3.10336 11.813 3.44668 12.6603C3.80304 13.5384 4.32523 14.3252 5.00022 15.0002L10 20L14.9998 15.0002C15.6743 14.3257 16.197 13.5384 16.5529 12.6608C16.8962 11.8135 17.0709 10.9186 17.0704 10.0005C17.0704 9.46661 17.0112 8.94069 16.8943 8.42687C16.81 8.05747 16.6968 7.69458 16.5524 7.34055C16.197 6.46246 15.6748 5.67473 15.0002 5.00021Z" fill="black"/>
<circle cx="10" cy="10" r="3" fill="white"/>
</g>
<defs>
<clipPath id="clip0">
</clipPath>
</defs>
</svg>
