<svg width="20" height="20" viewBox="0 0 20 20" fill="none" xmlns="http://www.w3.org/2000/svg">
<path fill-rule="evenodd" clip-rule="evenodd" d="M12.6604 2.51754C13.5385 2.8739 14.3253 3.3961 15.0003 4.07109C15.6748 4.74562 16.197 5.53334 16.5525 6.41143C16.6969 6.76547 16.8101 7.12835 16.8944 7.49776C17.0113 8.01157 17.0705 8.53749 17.0705 9.07133C17.0709 9.98949 16.8962 10.8844 16.5529 11.7317C16.197 12.6093 15.6744 13.3966 14.9998 14.0711L10.0001 19.0709L5.00029 14.0711C4.3253 13.3961 3.8031 12.6093 3.44674 11.7312C3.10342 10.8839 2.9292 9.98855 2.9292 9.07086C2.9292 8.53702 2.98836 8.0111 3.10481 7.49775C3.18913 7.12835 3.30326 6.76453 3.4472 6.41003C3.8031 5.5324 4.3253 4.74562 5.00029 4.07063C5.67481 3.3961 6.46207 2.87344 7.33969 2.51754C8.18704 2.17422 9.08237 2 10.0001 2C10.9182 1.99954 11.8131 2.17422 12.6604 2.51754ZM10.0001 12.0709C11.6569 12.0709 13.0001 10.7277 13.0001 9.07088C13.0001 7.41403 11.6569 6.07088 10.0001 6.07088C8.34321 6.07088 7.00006 7.41403 7.00006 9.07088C7.00006 10.7277 8.34321 12.0709 10.0001 12.0709Z" fill="black"/>
</svg>
