<svg width="20" height="20" viewBox="0 0 20 20" fill="none" xmlns="http://www.w3.org/2000/svg">
<path d="M20 10.0005C20 8.65049 19.7354 7.3415 19.2137 6.10704C18.7096 4.91638 17.9895 3.84683 17.0708 2.92914C16.1532 2.01145 15.0836 1.29035 13.8929 0.786318C12.6594 0.264585 11.3495 0 10.0005 0C8.65048 0 7.34151 0.264585 6.10798 0.786318C5.60954 0.996874 5.13159 1.24656 4.67787 1.53165C4.04807 1.92854 3.463 2.3953 2.92915 2.92914C2.01147 3.84683 1.29036 4.91638 0.786329 6.10704C0.264598 7.3415 0 8.65049 0 10.0005L0 20H9.99953C11.3486 20 12.6585 19.7354 13.892 19.2137C15.0827 18.7096 16.1522 17.9895 17.0699 17.0709C17.6038 16.537 18.0705 15.9519 18.4674 15.3212C18.7525 14.8675 19.0022 14.3914 19.2118 13.893C19.7345 12.6594 20 11.3495 20 10.0005Z" fill="#3D3D3D"/>
</svg>
