<svg width="20" height="20" viewBox="0 0 20 20" fill="none" xmlns="http://www.w3.org/2000/svg">
<path fill-rule="evenodd" clip-rule="evenodd" d="M16.5876 8.60644L12.8461 12.348C12.4246 12.7694 11.8678 12.9729 11.3155 12.9584L11.6949 12.579C13.1915 11.0824 13.3651 8.76378 12.2157 7.07646L13.6367 5.65553C14.4515 4.84066 15.7727 4.84066 16.5876 5.65553C17.4024 6.4704 17.4024 7.79157 16.5876 8.60644ZM10.5073 5.60486L12.0467 4.06553C13.7397 2.37252 16.4846 2.37253 18.1776 4.06553C19.8706 5.75854 19.8706 8.50344 18.1776 10.1964L14.4361 13.938C13.099 15.2751 11.1057 15.5561 9.49274 14.7812L7.9534 16.3205C6.26039 18.0135 3.51549 18.0135 1.82249 16.3205C0.129483 14.6275 0.129483 11.8826 1.82249 10.1896L5.564 6.4481C6.90112 5.11098 8.89436 4.82991 10.5073 5.60486ZM7.78432 13.3096L6.3634 14.7305C5.54853 15.5454 4.22736 15.5454 3.41249 14.7305C2.59762 13.9157 2.59762 12.5945 3.41249 11.7796L7.154 8.0381C7.57545 7.61666 8.13231 7.41318 8.68453 7.42767L8.30515 7.80704C6.80854 9.30366 6.63493 11.6223 7.78432 13.3096ZM9.43663 11.6573C9.13127 10.9038 9.28411 10.0081 9.89516 9.39704L10.5634 8.72876C10.8688 9.48223 10.716 10.378 10.1049 10.989L9.43663 11.6573Z" fill="black"/>
</svg>
