<svg width="20" height="20" viewBox="0 0 20 20" fill="none" xmlns="http://www.w3.org/2000/svg">
<path d="M10.6657 3.66697L11.5002 6.23516C11.7278 6.9356 12.3805 7.40983 13.117 7.40983H15.8173C16.4955 7.40983 16.7774 8.27756 16.2288 8.67614L14.0442 10.2634C13.4483 10.6963 13.199 11.4636 13.4266 12.164L14.2611 14.7322C14.4706 15.3771 13.7325 15.9134 13.1839 15.5148L10.9992 13.9276C10.4034 13.4947 9.59659 13.4947 9.00076 13.9276L6.81613 15.5148C6.26753 15.9134 5.5294 15.3771 5.73894 14.7322L6.5734 12.164C6.80098 11.4636 6.55167 10.6963 5.95584 10.2634L3.77121 8.67614C3.22261 8.27756 3.50455 7.40983 4.18265 7.40983H6.88301C7.61949 7.40983 8.27222 6.9356 8.49981 6.23516L9.33426 3.66697C9.54381 3.02205 10.4562 3.02205 10.6657 3.66697Z" stroke="black"/>
</svg>
