<svg width="20" height="20" viewBox="0 0 20 20" fill="none" xmlns="http://www.w3.org/2000/svg">
<path fill-rule="evenodd" clip-rule="evenodd" d="M10.0167 3.43866C11.0841 3.39862 12.1531 3.42835 13.2167 3.52766C13.7326 3.52133 14.2451 3.6119 14.7277 3.79466C15.3934 4.10492 15.9284 4.63994 16.2387 5.30566C16.4214 5.78819 16.512 6.30073 16.5057 6.81666C16.5057 7.61666 16.5947 7.88366 16.5947 10.0167C16.6347 11.0841 16.605 12.1531 16.5057 13.2167C16.512 13.7326 16.4214 14.2451 16.2387 14.7277C15.9284 15.3934 15.3934 15.9284 14.7277 16.2387C14.2451 16.4214 13.7326 16.512 13.2167 16.5057C12.4167 16.5057 12.1497 16.5947 10.0167 16.5947C8.9492 16.6347 7.88026 16.605 6.81666 16.5057C6.30073 16.512 5.78819 16.4214 5.30566 16.2387C4.63994 15.9284 4.10492 15.3934 3.79466 14.7277C3.6119 14.2451 3.52133 13.7326 3.52766 13.2167C3.52766 12.4167 3.43866 12.1497 3.43866 10.0167C3.39862 8.9492 3.42835 7.88026 3.52766 6.81666C3.52133 6.30073 3.6119 5.78819 3.79466 5.30566C3.94975 4.97601 4.16012 4.67533 4.41666 4.41666C4.62501 4.10567 4.9421 3.88381 5.30566 3.79466C5.78819 3.6119 6.30073 3.52133 6.81666 3.52766C7.88026 3.42835 8.9492 3.39862 10.0167 3.43866V3.43866ZM10.0167 2.01666C8.91955 1.97756 7.82106 2.00729 6.72766 2.10566C6.05983 2.10406 5.3973 2.22436 4.77266 2.46066C4.23328 2.63665 3.74511 2.94184 3.35066 3.34966C2.94234 3.74428 2.63679 4.23282 2.46066 4.77266C2.18183 5.38474 2.05982 6.05663 2.10566 6.72766C2.00729 7.82106 1.97756 8.91955 2.01666 10.0167C1.97756 11.1138 2.00729 12.2123 2.10566 13.3057C2.10426 13.9739 2.2249 14.6368 2.46166 15.2617C2.63765 15.801 2.94284 16.2892 3.35066 16.6837C3.74511 17.0915 4.23328 17.3967 4.77266 17.5727C5.39755 17.8094 6.06043 17.9301 6.72866 17.9287C7.82175 18.0267 8.9199 18.0561 10.0167 18.0167C11.1138 18.0558 12.2123 18.026 13.3057 17.9277C13.9739 17.9291 14.6368 17.8084 15.2617 17.5717C15.7971 17.3872 16.2834 17.0832 16.6838 16.6828C17.0842 16.2824 17.3882 15.7961 17.5727 15.2607C17.8094 14.6358 17.9301 13.9729 17.9287 13.3047C17.9277 12.4167 18.0167 12.1497 18.0167 10.0167C18.0558 8.91955 18.026 7.82106 17.9277 6.72766C17.9291 6.05943 17.8084 5.39655 17.5717 4.77166C17.3957 4.23228 17.0905 3.74411 16.6827 3.34966C16.2882 2.94184 15.8 2.63665 15.2607 2.46066C14.636 2.22436 13.9735 2.10406 13.3057 2.10566C12.2123 2.00729 11.1138 1.97756 10.0167 2.01666V2.01666ZM10.0167 5.92766C9.47723 5.91874 8.94151 6.01841 8.44137 6.22074C7.94124 6.42307 7.48691 6.72393 7.10542 7.10542C6.72393 7.48691 6.42307 7.94124 6.22074 8.44137C6.01841 8.94151 5.91874 9.47723 5.92766 10.0167C5.92766 10.8254 6.16748 11.616 6.61679 12.2884C7.06609 12.9608 7.7047 13.4849 8.45187 13.7944C9.19904 14.1039 10.0212 14.1849 10.8144 14.0271C11.6076 13.8693 12.3362 13.4799 12.908 12.908C13.4799 12.3362 13.8693 11.6076 14.0271 10.8144C14.1849 10.0212 14.1039 9.19904 13.7944 8.45187C13.4849 7.7047 12.9608 7.06609 12.2884 6.61679C11.616 6.16748 10.8254 5.92766 10.0167 5.92766V5.92766ZM10.0167 12.6837C9.66464 12.6902 9.31491 12.6256 8.98839 12.4939C8.66187 12.3622 8.36527 12.166 8.1163 11.917C7.86734 11.6681 7.67113 11.3715 7.53941 11.0449C7.40769 10.7184 7.34315 10.3687 7.34966 10.0167C7.34315 9.66464 7.40769 9.31491 7.53941 8.98839C7.67113 8.66187 7.86734 8.36527 8.1163 8.1163C8.36527 7.86734 8.66187 7.67113 8.98839 7.53941C9.31491 7.40769 9.66464 7.34315 10.0167 7.34966C10.3687 7.34315 10.7184 7.40769 11.0449 7.53941C11.3715 7.67113 11.6681 7.86734 11.917 8.1163C12.166 8.36527 12.3622 8.66187 12.4939 8.98839C12.6256 9.31491 12.6902 9.66464 12.6837 10.0167C12.6902 10.3687 12.6256 10.7184 12.4939 11.0449C12.3622 11.3715 12.166 11.6681 11.917 11.917C11.6681 12.166 11.3715 12.3622 11.0449 12.4939C10.7184 12.6256 10.3687 12.6902 10.0167 12.6837V12.6837ZM14.2837 4.77266C14.0902 4.77266 13.9011 4.83002 13.7403 4.93749C13.5795 5.04495 13.4541 5.19769 13.3801 5.3764C13.3061 5.55511 13.2867 5.75175 13.3245 5.94146C13.3622 6.13118 13.4553 6.30544 13.5921 6.44221C13.7289 6.57899 13.9032 6.67214 14.0929 6.70987C14.2826 6.74761 14.4792 6.72824 14.6579 6.65422C14.8366 6.5802 14.9894 6.45484 15.0968 6.29401C15.2043 6.13318 15.2617 5.94409 15.2617 5.75066C15.2596 5.49193 15.1559 5.24438 14.9729 5.06142C14.7899 4.87847 14.5424 4.77476 14.2837 4.77266" fill="black"/>
</svg>
