<svg width="20" height="20" viewBox="0 0 20 20" fill="none" xmlns="http://www.w3.org/2000/svg">
<mask id="path-1-inside-1" fill="white">
<path fill-rule="evenodd" clip-rule="evenodd" d="M10.0353 4.33313C8.02006 2.31792 4.75273 2.31793 2.7375 4.33316C0.722263 6.3484 0.722264 9.61575 2.7375 11.631L2.75818 11.6516L7.9141 16.8075C9.08567 17.979 10.9852 17.9791 12.1567 16.8075L17.3333 11.631L17.3332 11.6309C19.3484 9.61566 19.3483 6.34837 17.3331 4.33316C15.3179 2.31793 12.0506 2.31792 10.0353 4.33313Z"/>
</mask>
<path d="M10.0353 4.33313L9.32821 5.04024L10.0353 5.74733L10.7424 5.04024L10.0353 4.33313ZM2.7375 4.33316L3.44461 5.04027L3.44461 5.04027L2.7375 4.33316ZM2.7375 11.631L2.0304 12.3381L2.03235 12.3401L2.7375 11.631ZM2.75818 11.6516L3.46529 10.9444L3.46333 10.9425L2.75818 11.6516ZM7.9141 16.8075L7.20699 17.5146L7.20699 17.5146L7.9141 16.8075ZM12.1567 16.8075L11.4496 16.1004L11.4496 16.1004L12.1567 16.8075ZM17.3333 11.631L18.0404 12.3381L18.7504 11.628L18.0374 10.9209L17.3333 11.631ZM17.3332 11.6309L16.6261 10.9238L15.916 11.6339L16.6291 12.341L17.3332 11.6309ZM17.3331 4.33316L16.626 5.04027L17.3331 4.33316ZM10.7424 3.62602C8.33664 1.22029 4.43615 1.2203 2.0304 3.62605L3.44461 5.04027C5.06932 3.41556 7.70349 3.41555 9.32821 5.04024L10.7424 3.62602ZM2.0304 3.62605C-0.375368 6.03182 -0.375368 9.93234 2.0304 12.3381L3.44461 10.9239C1.81989 9.29917 1.81989 6.66498 3.44461 5.04027L2.0304 3.62605ZM2.03235 12.3401L2.05303 12.3606L3.46333 10.9425L3.44266 10.9219L2.03235 12.3401ZM2.05108 12.3587L7.20699 17.5146L8.62121 16.1004L3.46529 10.9445L2.05108 12.3587ZM7.20699 17.5146C8.76909 19.0767 11.3017 19.0767 12.8638 17.5146L11.4496 16.1004C10.6686 16.8814 9.40226 16.8814 8.62121 16.1004L7.20699 17.5146ZM12.8638 17.5146L18.0404 12.3381L16.6261 10.9239L11.4496 16.1004L12.8638 17.5146ZM18.0374 10.9209L18.0373 10.9208L16.6291 12.341L16.6291 12.341L18.0374 10.9209ZM16.626 5.04027C18.2507 6.66496 18.2507 9.29909 16.6261 10.9238L18.0403 12.338C20.446 9.93222 20.4459 6.03178 18.0402 3.62605L16.626 5.04027ZM10.7424 5.04024C12.3671 3.41555 15.0013 3.41556 16.626 5.04027L18.0402 3.62605C15.6345 1.2203 11.734 1.22029 9.32821 3.62602L10.7424 5.04024Z" fill="black" mask="url(#path-1-inside-1)"/>
</svg>
