<svg width="20" height="20" viewBox="0 0 20 20" fill="none" xmlns="http://www.w3.org/2000/svg">
<path d="M2.65599 16.5075C2.88349 17.5075 3.12766 17.9217 4.43932 17.7067C4.82099 17.6434 5.29766 17.5642 5.88432 17.6609C6.85766 17.8225 9.43099 21.1009 13.0902 18.2092C13.8043 17.7092 14.1943 17.4325 15.5802 17.7042C16.1852 17.8217 16.961 17.6975 17.3402 16.5075C20.956 15.8567 20.1793 13.8625 19.096 13.6884C17.2127 13.3809 15.9635 11.4367 15.8302 10.8167C15.9627 10.735 16.2527 10.6342 16.4377 10.5709C19.4918 9.51418 17.7918 6.94252 15.7152 7.73585C15.851 5.56918 15.8902 3.83335 14.1177 2.16918C12.2335 0.405849 9.32266 0.325015 7.42182 1.15918C4.10849 2.60752 4.13432 5.41335 4.28182 7.76918C2.96099 7.26418 2.06516 7.99168 1.92099 8.73752C1.70266 9.91335 2.82599 10.3084 3.49599 10.5442C3.73016 10.6267 4.12099 10.7642 4.18016 10.8084C4.10766 10.8925 3.68766 12.76 1.20016 13.585C0.725156 13.7425 0.27599 13.8917 0.0809896 14.3267C-0.0348437 14.5867 -0.025677 14.8784 0.11099 15.1925C0.446823 15.9725 1.53849 16.3075 2.65599 16.5075ZM5.25182 11.4934C5.80182 10.385 5.08016 9.78085 3.91182 9.36918C3.66516 9.28252 3.20682 9.12085 3.14682 8.97252C3.16766 8.92002 3.33182 8.81502 3.48766 8.81502C3.53599 8.81835 3.67432 8.87168 3.76599 8.90585C7.71766 10.4025 3.05516 4.42752 7.92266 2.30085C9.41349 1.64752 11.7918 1.69918 13.2635 3.07835C15.6227 5.29168 13.7668 8.52335 14.7902 8.98918C15.5185 9.32002 16.2152 8.81085 16.4668 8.80335C16.6627 8.80335 16.8335 8.92002 16.8518 8.96168C16.8552 9.10918 16.3393 9.28752 16.031 9.39418C14.606 9.88668 14.161 10.4767 14.9668 11.9459C15.5743 13.0542 16.8593 14.4334 18.561 14.8517C17.3668 15.5417 16.4602 14.9342 16.1952 15.9775C16.0585 16.5317 15.971 16.5125 15.8202 16.4834C11.5985 15.6567 11.8868 20.0417 7.59599 17.1759C6.13182 16.1984 5.84599 16.3025 3.94182 16.5225C3.86182 16.2084 3.81016 15.8684 3.69932 15.6634C3.39849 15.1067 2.28516 15.3884 1.41266 14.8292C3.16349 14.23 4.34766 13.525 5.25182 11.4934Z" fill="#3D3D3D"/>
</svg>
