<svg width="20" height="20" viewBox="0 0 20 20" fill="none" xmlns="http://www.w3.org/2000/svg">
<path fill-rule="evenodd" clip-rule="evenodd" d="M12.7578 8.46924C14.47 10.0999 14.47 12.7437 12.7578 14.3744C11.0456 16.0051 8.26958 16.0051 6.55738 14.3744C4.84518 12.7437 4.84518 10.0999 6.55738 8.46924C8.26958 6.83857 11.0456 6.83857 12.7578 8.46924ZM15.1307 14.8966C16.8382 12.4629 16.564 9.14157 14.3079 6.99295C11.7396 4.54695 7.57558 4.54695 5.00728 6.99295C2.43898 9.43894 2.43898 13.4047 5.00728 15.8507C7.3592 18.0906 11.0493 18.2793 13.6267 16.4168L16.7063 19.3498C17.1344 19.7575 17.8284 19.7575 18.2565 19.3498C18.6845 18.9421 18.6845 18.2812 18.2565 17.8735L15.1307 14.8966Z" fill="#3D3D3D"/>
<path d="M12 3L16 3" stroke="#3D3D3D" stroke-linecap="round" stroke-linejoin="round"/>
</svg>
