<svg width="20" height="20" viewBox="0 0 20 20" fill="none" xmlns="http://www.w3.org/2000/svg">
<path fill-rule="evenodd" clip-rule="evenodd" d="M12.7578 6.46924C14.47 8.0999 14.47 10.7437 12.7578 12.3744C11.0456 14.0051 8.26958 14.0051 6.55738 12.3744C4.84518 10.7437 4.84518 8.0999 6.55738 6.46924C8.26958 4.83857 11.0456 4.83857 12.7578 6.46924ZM15.1307 12.8966C16.8382 10.4629 16.564 7.14157 14.3079 4.99295C11.7396 2.54695 7.57558 2.54695 5.00728 4.99295C2.43898 7.43894 2.43898 11.4047 5.00728 13.8507C7.3592 16.0906 11.0493 16.2793 13.6267 14.4168L16.7063 17.3498C17.1344 17.7575 17.8284 17.7575 18.2565 17.3498C18.6845 16.9421 18.6845 16.2812 18.2565 15.8735L15.1307 12.8966Z" fill="#3D3D3D"/>
</svg>
