<svg width="20" height="20" viewBox="0 0 20 20" fill="none" xmlns="http://www.w3.org/2000/svg">
<path d="M8 10.5C8.82843 10.5 9.5 9.82843 9.5 9C9.5 8.17157 8.82843 7.5 8 7.5V10.5ZM10.5 13C10.5 14.3807 9.38071 15.5 8 15.5V18.5C11.0376 18.5 13.5 16.0376 13.5 13H10.5ZM8 15.5C6.61929 15.5 5.5 14.3807 5.5 13H2.5C2.5 16.0376 4.96243 18.5 8 18.5V15.5ZM5.5 13C5.5 11.6193 6.61929 10.5 8 10.5V7.5C4.96243 7.5 2.5 9.96243 2.5 13H5.5Z" fill="black"/>
<path d="M13.5 2C13.5 1.17157 12.8284 0.5 12 0.5C11.1716 0.5 10.5 1.17157 10.5 2L13.5 2ZM13.5 13L13.5 2L10.5 2L10.5 13L13.5 13Z" fill="black"/>
<path d="M14.9394 7.06068C15.5252 7.64645 16.4749 7.64644 17.0607 7.06064C17.6465 6.47485 17.6464 5.5251 17.0606 4.93932L14.9394 7.06068ZM17.0606 4.93932L13.0605 0.939347L10.9393 3.0607L14.9394 7.06068L17.0606 4.93932Z" fill="black"/>
</svg>
