<svg width="20" height="20" viewBox="0 0 20 20" fill="none" xmlns="http://www.w3.org/2000/svg">
<path fill-rule="evenodd" clip-rule="evenodd" d="M6.33375 18.1274C7.86975 18.1413 9.3931 17.8489 10.8149 17.2675C12.2366 16.686 13.5282 15.8271 14.6143 14.7409C15.7004 13.6547 16.5592 12.3629 17.1405 10.9411C17.7218 9.5193 18.014 7.99592 18 6.45992V5.90492C18.7763 5.31384 19.4518 4.60084 20 3.79367C19.2548 4.11758 18.4701 4.3416 17.6662 4.45992C18.4926 3.94097 19.1191 3.15766 19.4438 2.23742C18.6411 2.6844 17.7816 3.02078 16.8888 3.23742C16.5127 2.81418 16.0504 2.4763 15.533 2.24647C15.0155 2.01664 14.4549 1.90019 13.8888 1.90492C12.8035 1.92137 11.7673 2.3598 10.9999 3.12727C10.2324 3.89475 9.79395 4.93093 9.7775 6.01617C9.75226 6.31694 9.79016 6.61966 9.88875 6.90492C8.25359 6.82601 6.65418 6.39852 5.1977 5.65109C3.74122 4.90366 2.46131 3.85357 1.44375 2.57117C1.07808 3.2146 0.886772 3.94236 0.888748 4.68242C0.903413 5.35404 1.07115 6.01345 1.37918 6.61045C1.6872 7.20744 2.1274 7.72627 2.66625 8.12742C1.99847 8.11393 1.34643 7.92232 0.777502 7.57242V7.57242C0.776462 8.52411 1.10967 9.44594 1.71897 10.177C2.32827 10.9081 3.17496 11.4019 4.11125 11.5724C3.74942 11.6701 3.37401 11.7076 3 11.6837C2.73591 11.7014 2.47103 11.6635 2.2225 11.5724C2.49416 12.3959 3.01353 13.1153 3.70959 13.6324C4.40565 14.1494 5.24444 14.4389 6.11125 14.4612C4.65063 15.602 2.85333 16.2271 0.999999 16.2387C0.662819 16.2567 0.324969 16.2191 0 16.1274C1.83881 17.4627 4.06158 18.1646 6.33375 18.1274Z" fill="black"/>
</svg>
