<svg width="20" height="20" viewBox="0 0 20 20" fill="none" xmlns="http://www.w3.org/2000/svg">
<path d="M19.9523 8.21463C19.9735 8.73397 19.9894 9.3381 20 10.0323C19.9841 10.7371 19.9682 11.3466 19.9417 11.8606C19.9152 12.3747 19.8728 12.8993 19.8198 13.4399C19.7668 13.9804 19.6873 14.4467 19.5813 14.8495C19.4595 15.2893 19.2475 15.6656 18.9401 15.9783C18.6327 16.2909 18.2618 16.5082 17.8219 16.6301C17.4086 16.7255 16.7833 16.7997 15.9459 16.858C15.1086 16.9163 14.2342 16.9587 13.328 16.9799C12.4218 17.0011 11.3196 17.017 10.0106 17.0276C8.70694 17.0117 7.59936 16.9958 6.68256 16.9693C5.77106 16.9428 4.89666 16.9004 4.06465 16.8474C3.23264 16.7944 2.60201 16.7149 2.17806 16.6089C1.73821 16.487 1.36725 16.275 1.05988 15.9571C0.752517 15.6444 0.54054 15.2681 0.418654 14.8283C0.312665 14.4308 0.233174 13.9645 0.18018 13.4293C0.127186 12.8993 0.084791 12.3694 0.0582939 11.85C0.0317968 11.3307 0.0105988 10.7265 0 10.0323C0.0105988 9.3275 0.0317968 8.71807 0.0582939 8.20403C0.084791 7.68998 0.127186 7.16534 0.18018 6.6248C0.233174 6.08426 0.312665 5.60731 0.418654 5.19396C0.54054 4.77 0.757816 4.39375 1.07048 4.07578C1.38315 3.75782 1.75411 3.53524 2.17806 3.41865C2.59142 3.32326 3.21675 3.24907 4.05405 3.19078C4.89136 3.13248 5.76576 3.09009 6.67197 3.06889C7.57817 3.04769 8.69104 3.0265 10.0106 3C11.3143 3.0265 12.4218 3.05299 13.328 3.07949C14.2342 3.10599 15.1033 3.14838 15.9459 3.20138C16.7833 3.25437 17.4086 3.33386 17.8219 3.43985C18.2618 3.56174 18.6327 3.77371 18.9401 4.09168C19.2475 4.40434 19.4595 4.7753 19.5813 5.19926C19.6873 5.61261 19.7721 6.08956 19.8304 6.6301C19.894 7.16534 19.9364 7.69528 19.9523 8.21463ZM8.01802 13.0053L13.2114 10.027L8.01802 7.01166V13.0053Z" fill="black"/>
</svg>
