<svg width="66" height="66" viewBox="0 0 66 66" fill="none" xmlns="http://www.w3.org/2000/svg">
<path d="M51.3281 10.2516V21.815C50.8476 21.0514 50.2825 20.3431 49.6363 19.6968C48.5253 18.5858 47.2304 17.7128 45.789 17.1026C44.2957 16.4709 42.7098 16.1506 41.0766 16.1506H30.8252V10.2516C30.8252 4.58949 35.4146 0 41.0766 0C43.9077 0 46.4702 1.14709 48.3256 3.00251C50.1799 4.85793 51.3281 7.42055 51.3281 10.2516Z" fill="#6F4BE0"/>
<path d="M34.6319 38.5105H23.0698C17.4078 38.5105 12.8184 33.9198 12.8184 28.2577C12.8184 25.4267 13.9654 22.864 15.8208 21.0086C17.6762 19.1532 20.2388 18.0061 23.0698 18.0061H28.9698V28.2577C28.9698 29.8921 29.2902 31.4768 29.9218 32.9713C30.532 34.4128 31.4038 35.7076 32.516 36.8186C33.1611 37.4649 33.8694 38.03 34.6319 38.5105Z" fill="#1EF4C4"/>
<path d="M53.1823 28.2575C53.1823 29.8919 52.8619 31.4766 52.2303 32.9711C51.6201 34.4125 50.7483 35.7074 49.6362 36.8184C48.5252 37.9294 47.2304 38.8024 45.7889 39.4126C44.2956 40.0442 42.7097 40.3645 41.0766 40.3645C39.4422 40.3645 37.8576 40.0442 36.3642 39.4126C35.7608 39.1577 35.1822 38.8554 34.6329 38.5103C33.8704 38.0298 33.1621 37.4647 32.5158 36.8184C31.4049 35.7074 30.5319 34.4125 29.9217 32.9711C29.2901 31.4766 28.9697 29.8919 28.9697 28.2575V16.1516H41.0754C42.7086 16.1516 44.2944 16.4719 45.7878 17.1036C47.2292 17.7138 48.524 18.5857 49.635 19.6978C50.2813 20.3441 50.8464 21.0524 51.3269 21.816C51.672 22.3653 51.9743 22.9417 52.2281 23.5451C52.8608 25.0384 53.1823 26.6243 53.1823 28.2575Z" fill="#FF526B"/>
<path d="M4.93794 56.5695V53.4621C4.93794 53.2286 5.00674 53.0425 5.1466 52.9037C5.28533 52.765 5.47594 52.6951 5.71844 52.6951C5.95191 52.6951 6.13802 52.765 6.27676 52.9037C6.41549 53.0425 6.48541 53.2286 6.48541 53.4621V61.8436C6.48541 62.0861 6.41549 62.2767 6.27676 62.4154C6.13802 62.5542 5.95191 62.6241 5.71844 62.6241C5.47594 62.6241 5.28533 62.5553 5.1466 62.4154C5.00787 62.2767 4.93794 62.0861 4.93794 61.8436V58.1034H1.54747V61.8436C1.54747 62.0861 1.47755 62.2767 1.33881 62.4154C1.20008 62.5542 1.00946 62.6241 0.766962 62.6241C0.551534 62.6241 0.369947 62.5553 0.222193 62.4154C0.074438 62.2767 0 62.0861 0 61.8436V53.4621C0 53.2286 0.074438 53.0425 0.222193 52.9037C0.369947 52.765 0.551534 52.6951 0.766962 52.6951C1.00946 52.6951 1.20008 52.765 1.33881 52.9037C1.47755 53.0425 1.54747 53.2286 1.54747 53.4621V56.5695H4.93794Z" fill="white"/>
<path d="M11.4901 54.8743C12.0371 54.8743 12.5503 54.9803 13.0308 55.1901C13.5101 55.401 13.9297 55.6852 14.2884 56.0439C14.647 56.4026 14.929 56.8222 15.1354 57.3015C15.3418 57.7809 15.4444 58.2952 15.4444 58.8423C15.4444 59.3893 15.3407 59.9025 15.1354 60.383C14.929 60.8624 14.647 61.2797 14.2884 61.6339C13.9297 61.988 13.5101 62.2689 13.0308 62.4742C12.5514 62.6806 12.0371 62.7832 11.4901 62.7832C10.943 62.7832 10.4298 62.6794 9.94934 62.4742C9.46999 62.2678 9.05041 61.988 8.69174 61.6339C8.33307 61.2797 8.04996 60.8624 7.84469 60.383C7.63828 59.9037 7.53564 59.3893 7.53564 58.8423C7.53564 58.2952 7.63828 57.782 7.84469 57.3015C8.05109 56.8222 8.33307 56.4026 8.69174 56.0439C9.05041 55.6852 9.46999 55.401 9.94934 55.1901C10.4287 54.9803 10.9419 54.8743 11.4901 54.8743ZM11.4901 56.4218C11.1494 56.4218 10.8325 56.4849 10.5415 56.6101C10.2505 56.7353 9.99672 56.9079 9.78129 57.1279C9.56586 57.3478 9.39554 57.605 9.27035 57.9016C9.14515 58.1971 9.082 58.5118 9.082 58.8434C9.082 59.175 9.14515 59.4875 9.27035 59.7785C9.39554 60.0695 9.56586 60.3232 9.78129 60.5387C9.99672 60.7541 10.2494 60.9244 10.5415 61.0496C10.8325 61.1748 11.1494 61.238 11.4901 61.238C11.8217 61.238 12.133 61.1748 12.4251 61.0496C12.7161 60.9244 12.9721 60.7541 13.192 60.5387C13.412 60.3232 13.5845 60.0706 13.7097 59.7785C13.8349 59.4875 13.8981 59.175 13.8981 58.8434C13.8981 58.5118 13.8349 58.1971 13.7097 57.9016C13.5845 57.6061 13.412 57.3478 13.192 57.1279C12.9721 56.9079 12.7161 56.7353 12.4251 56.6101C12.133 56.4849 11.8217 56.4218 11.4901 56.4218Z" fill="white"/>
<path d="M18.0274 61.857C18.0274 62.0995 17.9575 62.2879 17.8188 62.4221C17.6801 62.5563 17.4895 62.624 17.247 62.624C17.0315 62.624 16.8499 62.5563 16.7022 62.4221C16.5544 62.2879 16.48 62.0995 16.48 61.857V55.7223C16.48 55.5159 16.5386 55.3524 16.6548 55.2317C16.771 55.111 16.9278 55.0501 17.1251 55.0501C17.5639 55.0501 17.8199 55.2565 17.8921 55.6693C18.0985 55.3918 18.3557 55.1899 18.6658 55.0636C18.9749 54.9384 19.2918 54.8752 19.6144 54.8752C19.8298 54.8752 20.0498 54.8978 20.2731 54.9429C20.4975 54.988 20.7107 55.0557 20.9126 55.1448C21.1145 55.2351 21.3029 55.3535 21.4777 55.5012C21.6525 55.649 21.798 55.8216 21.9153 56.0189C22.1758 55.6152 22.521 55.3242 22.9507 55.1448C23.3816 54.9655 23.8113 54.8752 24.2421 54.8752C24.6279 54.8752 25.0023 54.9542 25.3655 55.111C25.7287 55.2678 26.049 55.4832 26.3276 55.7573C26.6051 56.0314 26.8295 56.3585 26.9998 56.7397C27.1702 57.1209 27.2559 57.536 27.2559 57.9838V61.8582C27.2559 62.1007 27.1859 62.289 27.0472 62.4232C26.9085 62.5575 26.7224 62.6251 26.4889 62.6251C26.2645 62.6251 26.0806 62.5575 25.9374 62.4232C25.7941 62.289 25.7219 62.1007 25.7219 61.8582V57.9838C25.7219 57.7593 25.6813 57.5529 25.6013 57.3646C25.52 57.1762 25.4106 57.0104 25.2719 56.8671C25.1332 56.7239 24.9741 56.6111 24.7948 56.531C24.6155 56.4498 24.4316 56.4103 24.2433 56.4103C24.0459 56.4103 23.853 56.4509 23.6647 56.531C23.4763 56.6122 23.306 56.7239 23.1537 56.8671C23.0015 57.0104 22.8785 57.1762 22.7838 57.3646C22.689 57.5529 22.6428 57.7593 22.6428 57.9838V61.8582C22.6428 62.1007 22.5729 62.289 22.4341 62.4232C22.2954 62.5575 22.1048 62.6251 21.8623 62.6251C21.6469 62.6251 21.4675 62.5575 21.3243 62.4232C21.181 62.289 21.1089 62.1007 21.1089 61.8582V57.9838C21.1089 57.7593 21.066 57.5529 20.9814 57.3646C20.8957 57.1762 20.784 57.0104 20.6453 56.8671C20.5066 56.7239 20.3475 56.6111 20.1682 56.531C19.9889 56.4498 19.805 56.4103 19.6167 56.4103C19.4283 56.4103 19.2377 56.4509 19.0448 56.531C18.8519 56.6122 18.6816 56.7239 18.5339 56.8671C18.3861 57.0104 18.2643 57.1762 18.1707 57.3646C18.0771 57.5529 18.0297 57.7593 18.0297 57.9838V61.857H18.0274Z" fill="white"/>
<path d="M30.1217 61.857C30.1217 62.0995 30.0518 62.2879 29.913 62.4221C29.7743 62.5563 29.5837 62.624 29.3412 62.624C29.1258 62.624 28.9442 62.5563 28.7964 62.4221C28.6487 62.2879 28.5742 62.0995 28.5742 61.857V55.7223C28.5742 55.5159 28.6329 55.3524 28.749 55.2317C28.8652 55.111 29.022 55.0501 29.2194 55.0501C29.6581 55.0501 29.9142 55.2565 29.9863 55.6693C30.1928 55.3918 30.4499 55.1899 30.7601 55.0636C31.0691 54.9384 31.3861 54.8752 31.7087 54.8752C31.9241 54.8752 32.144 54.8978 32.3673 54.9429C32.5918 54.988 32.805 55.0557 33.0069 55.1448C33.2088 55.2351 33.3971 55.3535 33.5719 55.5012C33.7468 55.649 33.8923 55.8216 34.0096 56.0189C34.2701 55.6152 34.6152 55.3242 35.045 55.1448C35.4758 54.9655 35.9056 54.8752 36.3364 54.8752C36.7222 54.8752 37.0966 54.9542 37.4598 55.111C37.823 55.2678 38.1433 55.4832 38.4219 55.7573C38.6994 56.0314 38.9238 56.3585 39.0941 56.7397C39.2644 57.1209 39.3502 57.536 39.3502 57.9838V61.8582C39.3502 62.1007 39.2802 62.289 39.1415 62.4232C39.0028 62.5575 38.8167 62.6251 38.5832 62.6251C38.3587 62.6251 38.1749 62.5575 38.0316 62.4232C37.8884 62.289 37.8162 62.1007 37.8162 61.8582V57.9838C37.8162 57.7593 37.7756 57.5529 37.6955 57.3646C37.6143 57.1762 37.5049 57.0104 37.3662 56.8671C37.2275 56.7239 37.0684 56.6111 36.8891 56.531C36.7097 56.4498 36.5259 56.4103 36.3375 56.4103C36.1402 56.4103 35.9473 56.4509 35.7589 56.531C35.5706 56.6122 35.4003 56.7239 35.248 56.8671C35.0957 57.0104 34.9728 57.1762 34.878 57.3646C34.7844 57.5529 34.7371 57.7593 34.7371 57.9838V61.8582C34.7371 62.1007 34.6671 62.289 34.5284 62.4232C34.3897 62.5575 34.199 62.6251 33.9565 62.6251C33.7411 62.6251 33.5618 62.5575 33.4185 62.4232C33.2753 62.289 33.2031 62.1007 33.2031 61.8582V57.9838C33.2031 57.7593 33.1603 57.5529 33.0757 57.3646C32.9899 57.1762 32.8783 57.0104 32.7396 56.8671C32.6008 56.7239 32.4418 56.6111 32.2625 56.531C32.0831 56.4498 31.8993 56.4103 31.7109 56.4103C31.5225 56.4103 31.3319 56.4509 31.1391 56.531C30.9462 56.6122 30.7759 56.7239 30.6281 56.8671C30.4804 57.0104 30.3586 57.1762 30.2649 57.3646C30.1713 57.5529 30.1239 57.7593 30.1239 57.9838V61.857H30.1217Z" fill="white"/>
<path d="M48.2154 61.8436C48.2154 62.0861 48.1455 62.2767 48.0067 62.4154C47.868 62.5542 47.6774 62.6241 47.4349 62.6241C47.2195 62.6241 47.0379 62.5553 46.8901 62.4154C46.7424 62.2767 46.6679 62.0861 46.6679 61.8436V61.803C46.5427 61.9282 46.3961 62.0523 46.2303 62.173C46.0645 62.2936 45.8807 62.3997 45.6788 62.4888C45.4769 62.5779 45.2637 62.6501 45.0392 62.7042C44.8148 62.7583 44.5903 62.7854 44.367 62.7854C43.7929 62.7854 43.2639 62.6816 42.7801 62.4764C42.2962 62.2699 41.8789 61.9902 41.5292 61.6361C41.1796 61.2819 40.9055 60.8646 40.7081 60.3852C40.5107 59.9058 40.4126 59.3915 40.4126 58.8445C40.4126 58.2974 40.5107 57.7842 40.7081 57.3037C40.9055 56.8244 41.1807 56.4048 41.536 56.0461C41.8902 55.6874 42.3097 55.4032 42.7936 55.1923C43.2775 54.9814 43.8031 54.8765 44.367 54.8765C44.8689 54.8765 45.3133 54.9622 45.6991 55.1325C46.0848 55.3028 46.4074 55.5318 46.6679 55.8183C46.6679 55.5848 46.7424 55.3987 46.8901 55.26C47.0379 55.1212 47.2195 55.0513 47.4349 55.0513C47.6774 55.0513 47.868 55.1212 48.0067 55.26C48.1455 55.3987 48.2154 55.5848 48.2154 55.8183V61.8436V61.8436ZM44.3681 56.4217C44.0275 56.4217 43.7106 56.4849 43.4196 56.6101C43.1286 56.7353 42.8748 56.9078 42.6594 57.1278C42.4439 57.3477 42.2736 57.6049 42.1484 57.9015C42.0232 58.1971 41.9601 58.5117 41.9601 58.8433C41.9601 59.175 42.0232 59.4874 42.1484 59.7784C42.2736 60.0694 42.4439 60.3232 42.6594 60.5386C42.8748 60.754 43.1275 60.9243 43.4196 61.0495C43.7106 61.1747 44.0275 61.2379 44.3681 61.2379C44.6907 61.2379 44.9941 61.1747 45.2761 61.0495C45.5581 60.9243 45.8006 60.754 46.0025 60.5386C46.2044 60.3232 46.3634 60.0705 46.4796 59.7784C46.5957 59.4874 46.6544 59.175 46.6544 58.8433C46.6544 58.5117 46.5957 58.1971 46.4796 57.9015C46.3634 57.606 46.2032 57.3477 46.0025 57.1278C45.8006 56.9078 45.5581 56.7353 45.2761 56.6101C44.9941 56.4849 44.6907 56.4217 44.3681 56.4217Z" fill="white"/>
<path d="M53.2062 54.8743C53.4487 54.8743 53.6833 54.9036 53.9123 54.9622C54.1412 55.0209 54.3567 55.0987 54.5586 55.198C54.7605 55.2972 54.9466 55.4089 55.1169 55.5341C55.2872 55.6593 55.4349 55.7901 55.5613 55.9244C55.5793 55.6288 55.6504 55.4089 55.7767 55.2657C55.9019 55.1224 56.1083 55.0502 56.3959 55.0502C56.5843 55.0502 56.741 55.1111 56.8662 55.2318C56.9914 55.3525 57.0546 55.5172 57.0546 55.7225V62.0591C57.0546 62.552 56.9802 63.0347 56.8324 63.5051C56.6847 63.9754 56.4489 64.3973 56.1263 64.7695C55.8038 65.1417 55.3932 65.4394 54.8958 65.6639C54.3984 65.8884 53.7995 66 53.1002 66C52.8216 66 52.6141 65.9301 52.4742 65.7914C52.3355 65.6526 52.2656 65.462 52.2656 65.2195C52.2656 64.986 52.3344 64.7977 52.4742 64.6544C52.6129 64.5112 52.8036 64.439 53.046 64.439C53.5119 64.439 53.9021 64.3691 54.2168 64.2303C54.5304 64.0916 54.7819 63.9055 54.9702 63.672C55.1586 63.4385 55.2906 63.1633 55.3673 62.8441C55.4428 62.526 55.4812 62.1877 55.4812 61.8279C55.2477 62.1324 54.9432 62.3681 54.5665 62.5339C54.1897 62.6997 53.7363 62.7832 53.2073 62.7832C52.6964 62.7832 52.2001 62.6794 51.7208 62.4742C51.2414 62.2677 50.8196 61.9858 50.4564 61.6271C50.0932 61.2684 49.8011 60.8488 49.5823 60.3695C49.3623 59.8901 49.2529 59.3758 49.2529 58.8287C49.2529 58.2817 49.3623 57.7685 49.5823 57.288C49.8022 56.8086 50.0932 56.3891 50.4564 56.0304C50.8196 55.6717 51.2414 55.3897 51.7208 55.1833C52.2001 54.978 52.6953 54.8743 53.2062 54.8743ZM53.2062 61.238C53.5288 61.238 53.8322 61.1748 54.1142 61.0496C54.3962 60.9244 54.6386 60.7518 54.8405 60.5319C55.0424 60.3119 55.2015 60.057 55.3176 59.7649C55.4338 59.4739 55.4925 59.1615 55.4925 58.8299C55.4925 58.4983 55.4338 58.187 55.3176 57.8948C55.2015 57.6038 55.0413 57.3478 54.8405 57.1279C54.6386 56.9079 54.3962 56.7353 54.1142 56.6101C53.8322 56.4849 53.5288 56.4218 53.2062 56.4218C52.8656 56.4218 52.5486 56.4849 52.2576 56.6101C51.9667 56.7353 51.7129 56.9079 51.4974 57.1279C51.282 57.3478 51.1117 57.6038 50.9865 57.8948C50.8613 58.187 50.7982 58.4983 50.7982 58.8299C50.7982 59.1615 50.8613 59.4739 50.9865 59.7649C51.1117 60.0559 51.282 60.3119 51.4974 60.5319C51.7129 60.7518 51.9655 60.9244 52.2576 61.0496C52.5498 61.1759 52.8656 61.238 53.2062 61.238Z" fill="white"/>
<path d="M62.0457 54.8743C62.5837 54.8743 63.0923 54.978 63.5728 55.1833C64.0522 55.3897 64.4718 55.6661 64.8304 56.0112C65.1891 56.3564 65.4733 56.7601 65.6842 57.2215C65.8952 57.6839 66.0001 58.17 66.0001 58.681C66.0001 58.9415 65.9324 59.1389 65.7982 59.2731C65.6639 59.4074 65.4756 59.475 65.2331 59.475H59.7707C59.8158 59.7266 59.9094 59.9589 60.0527 60.1743C60.1959 60.3898 60.373 60.5759 60.5839 60.7327C60.7948 60.8894 61.0261 61.0135 61.2764 61.1026C61.528 61.1929 61.7829 61.2368 62.0434 61.2368C62.375 61.2368 62.6795 61.1782 62.9581 61.062C63.2356 60.9458 63.4826 60.78 63.698 60.5646C63.7871 60.4834 63.8864 60.4191 63.9935 60.3695C64.1007 60.3199 64.2044 60.295 64.3026 60.295C64.509 60.295 64.6815 60.3717 64.8203 60.524C64.959 60.6763 65.0289 60.8556 65.0289 61.062C65.0289 61.1692 65.0154 61.2729 64.9883 61.3711C64.9613 61.4703 64.9071 61.5594 64.827 61.6406C64.4774 62.0264 64.0646 62.3129 63.5897 62.5012C63.1138 62.6896 62.5983 62.7832 62.0423 62.7832C61.4952 62.7832 60.9821 62.6794 60.5016 62.4742C60.0222 62.2678 59.6026 61.988 59.244 61.6339C58.8853 61.2797 58.6022 60.8624 58.3969 60.383C58.1905 59.9037 58.0879 59.3893 58.0879 58.8423C58.0879 58.2952 58.1905 57.782 58.3969 57.3015C58.6033 56.8222 58.8853 56.4026 59.244 56.0439C59.6026 55.6852 60.0222 55.401 60.5016 55.1901C60.9843 54.9803 61.4975 54.8743 62.0457 54.8743ZM62.0457 56.4218C61.7851 56.4218 61.5302 56.4669 61.2787 56.556C61.0272 56.6462 60.8016 56.7714 60.5997 56.9327C60.3978 57.094 60.2252 57.2824 60.082 57.4978C59.9388 57.7132 59.8395 57.9467 59.7865 58.1971H64.3071C64.262 57.9456 64.1684 57.7132 64.0251 57.4978C63.8819 57.2824 63.707 57.094 63.5006 56.9327C63.2942 56.7714 63.0653 56.6462 62.8149 56.556C62.5611 56.4669 62.3051 56.4218 62.0457 56.4218Z" fill="white"/>
</svg>
