<svg width="267" height="50" viewBox="0 0 267 50" fill="none" xmlns="http://www.w3.org/2000/svg">
<path d="M47.6998 12.7V27C47.0998 26.1 46.3998 25.2 45.5998 24.4C44.1998 23 42.5998 21.9 40.7998 21.2C38.9998 20.4 36.9998 20 34.9998 20H22.2998V12.7C22.2998 5.7 27.9998 0 34.9998 0C38.4998 0 41.6998 1.4 43.9998 3.7C46.2998 6 47.6998 9.2 47.6998 12.7Z" fill="#6F4BE0"/>
<path d="M27 47.7001H12.7C5.7 47.7001 0 42 0 35C0 31.5 1.4 28.3 3.7 26C6 23.7 9.2 22.3 12.7 22.3H20V35C20 37 20.4 39 21.2 40.8C22 42.6 23 44.2 24.4 45.6C25.2 46.4 26.1 47.1 27 47.7001Z" fill="#1EF4C4"/>
<path d="M50 35C50 37 49.6 39 48.8 40.8C48 42.6 47 44.2 45.6 45.6C44.2 47 42.6 48.1 40.8 48.8C39 49.6 37 50 35 50C33 50 31 49.6 29.2 48.8C28.5 48.5 27.7 48.1 27.1 47.7C26.2 47.1 25.3 46.4 24.5 45.6C23.1 44.2 22 42.6 21.3 40.8C20.4 39 20 37 20 35V20H35C37 20 39 20.4 40.8 21.2C42.6 22 44.2 23 45.6 24.4C46.4 25.2 47.1 26.1 47.7 27C48.1 27.7 48.5 28.4 48.8 29.1C49.6 31 50 33 50 35Z" fill="#FF526B"/>
<path d="M87.5001 22.4V13.3C87.5001 12.6 87.7001 12.1 88.1001 11.7C88.5001 11.3 89.1001 11.1 89.8001 11.1C90.5001 11.1 91.0001 11.3 91.4001 11.7C91.8001 12.1 92.0001 12.7 92.0001 13.3V37.8C92.0001 38.5 91.8001 39.1 91.4001 39.5C91.0001 39.9 90.4001 40.1 89.8001 40.1C89.1001 40.1 88.5001 39.9 88.1001 39.5C87.7001 39.1 87.5001 38.5 87.5001 37.8V26.9H77.6001V37.8C77.6001 38.5 77.4001 39.1 77.0001 39.5C76.6001 39.9 76.0001 40.1 75.3001 40.1C74.7001 40.1 74.1001 39.9 73.7001 39.5C73.3001 39.1 73.1001 38.5 73.1001 37.8V13.3C73.1001 12.6 73.3001 12.1 73.7001 11.7C74.1001 11.3 74.7001 11.1 75.3001 11.1C76.0001 11.1 76.6001 11.3 77.0001 11.7C77.4001 12.1 77.6001 12.7 77.6001 13.3V22.4H87.5001Z" fill="white"/>
<path d="M107.2 17.4C108.8 17.4 110.3 17.7 111.7 18.3C113.1 18.9 114.3 19.8 115.4 20.8C116.4 21.9 117.3 23.1 117.9 24.5C118.5 25.9 118.8 27.4 118.8 29C118.8 30.6 118.5 32.1 117.9 33.5C117.3 34.9 116.5 36.1 115.4 37.2C114.3 38.2 113.1 39.1 111.7 39.7C110.3 40.3 108.8 40.6 107.2 40.6C105.6 40.6 104.1 40.3 102.7 39.7C101.3 39.1 100.1 38.3 99.0001 37.2C97.9001 36.2 97.1001 34.9 96.5001 33.5C95.9001 32.1 95.6001 30.6 95.6001 29C95.6001 27.4 95.9001 25.9 96.5001 24.5C97.1001 23.1 97.9001 21.9 99.0001 20.8C100 19.8 101.3 18.9 102.7 18.3C104.1 17.7 105.6 17.4 107.2 17.4ZM107.2 22C106.2 22 105.3 22.2 104.4 22.6C103.5 23 102.8 23.5 102.2 24.1C101.6 24.7 101.1 25.5 100.7 26.4C100.3 27.3 100.1 28.2 100.1 29.2C100.1 30.2 100.3 31.1 100.7 31.9C101.1 32.8 101.6 33.5 102.2 34.1C102.8 34.7 103.6 35.2 104.4 35.6C105.3 36 106.2 36.2 107.2 36.2C108.2 36.2 109.1 36 109.9 35.6C110.8 35.2 111.5 34.7 112.1 34.1C112.7 33.5 113.2 32.7 113.6 31.9C114 31 114.2 30.1 114.2 29.2C114.2 28.2 114 27.3 113.6 26.4C113.2 25.5 112.7 24.8 112.1 24.1C111.5 23.5 110.7 23 109.9 22.6C109.1 22.1 108.2 22 107.2 22Z" fill="white"/>
<path d="M126.3 37.9001C126.3 38.6001 126.1 39.2 125.7 39.6C125.3 40 124.7 40.2001 124 40.2001C123.4 40.2001 122.8 40 122.4 39.6C122 39.2 121.8 38.7001 121.8 37.9001V19.9C121.8 19.3 122 18.8 122.3 18.5C122.6 18.1 123.1 18 123.7 18C125 18 125.7 18.6 125.9 19.8C126.5 19 127.3 18.4 128.2 18C129.1 17.6 130 17.4 131 17.4C131.6 17.4 132.3 17.5 132.9 17.6C133.6 17.7 134.2 17.9001 134.8 18.2001C135.4 18.5001 135.9 18.8001 136.5 19.2001C137 19.6001 137.4 20.1001 137.8 20.7001C138.6 19.5001 139.6 18.7 140.8 18.1C142.1 17.6 143.3 17.3 144.6 17.3C145.7 17.3 146.8 17.5 147.9 18C149 18.5 149.9 19.1 150.7 19.9C151.5 20.7 152.2 21.7 152.7 22.8C153.2 23.9 153.4 25.1 153.4 26.4V37.7001C153.4 38.4001 153.2 39.0001 152.8 39.4001C152.4 39.8001 151.8 40 151.2 40C150.5 40 150 39.8001 149.6 39.4001C149.2 39.0001 149 38.5 149 37.7001V26.5C149 25.8 148.9 25.2001 148.6 24.7001C148.4 24.1001 148 23.7001 147.6 23.2001C147.2 22.8001 146.7 22.5001 146.2 22.2001C145.7 22.0001 145.1 21.8 144.6 21.8C144 21.8 143.5 21.9001 142.9 22.2001C142.3 22.4001 141.9 22.8001 141.4 23.2001C141 23.6001 140.6 24.1001 140.3 24.7001C140 25.3001 139.9 25.9 139.9 26.5V37.8C139.9 38.5 139.7 39.1 139.3 39.5C138.9 39.9 138.3 40.1 137.6 40.1C137 40.1 136.4 39.9 136 39.5C135.6 39.1 135.4 38.6 135.4 37.8V26.5C135.4 25.8 135.3 25.2001 135 24.7001C134.7 24.1001 134.4 23.7001 134 23.2001C133.6 22.7001 133.1 22.5001 132.6 22.2001C132.1 22.0001 131.5 21.8 131 21.8C130.4 21.8 129.9 21.9001 129.3 22.2001C128.7 22.4001 128.2 22.8001 127.8 23.2001C127.4 23.6001 127 24.1001 126.7 24.7001C126.4 25.3001 126.3 25.9 126.3 26.5V37.9001Z" fill="white"/>
<path d="M161.7 37.9001C161.7 38.6001 161.5 39.2 161.1 39.6C160.7 40 160.1 40.2001 159.4 40.2001C158.8 40.2001 158.2 40 157.8 39.6C157.4 39.2 157.2 38.7001 157.2 37.9001V19.9C157.2 19.3 157.4 18.8 157.7 18.5C158 18.1 158.5 18 159.1 18C160.4 18 161.1 18.6 161.3 19.8C161.9 19 162.7 18.4 163.6 18C164.5 17.6 165.4 17.4 166.4 17.4C167 17.4 167.7 17.5 168.3 17.6C169 17.7 169.6 17.9001 170.2 18.2001C170.8 18.5001 171.3 18.8001 171.9 19.2001C172.4 19.6001 172.8 20.1001 173.2 20.7001C174 19.5001 175 18.7 176.2 18.1C177.5 17.6 178.7 17.3 180 17.3C181.1 17.3 182.2 17.5 183.3 18C184.4 18.5 185.3 19.1 186.1 19.9C186.9 20.7 187.6 21.7 188.1 22.8C188.6 23.9 188.8 25.1 188.8 26.4V37.7001C188.8 38.4001 188.6 39.0001 188.2 39.4001C187.8 39.8001 187.2 40 186.6 40C185.9 40 185.4 39.8001 185 39.4001C184.6 39.0001 184.4 38.5 184.4 37.7001V26.5C184.4 25.8 184.3 25.2001 184 24.7001C183.8 24.1001 183.4 23.7001 183 23.2001C182.6 22.8001 182.1 22.5001 181.6 22.2001C181.1 22.0001 180.5 21.8 180 21.8C179.4 21.8 178.9 21.9001 178.3 22.2001C177.7 22.4001 177.2 22.8001 176.8 23.2001C176.4 23.6001 176 24.1001 175.7 24.7001C175.4 25.3001 175.3 25.9 175.3 26.5V37.8C175.3 38.5 175.1 39.1 174.7 39.5C174.3 39.9 173.7 40.1 173 40.1C172.4 40.1 171.8 39.9 171.4 39.5C171 39.1 170.8 38.6 170.8 37.8V26.5C170.8 25.8 170.7 25.2001 170.4 24.7001C170.1 24.1001 169.8 23.7001 169.4 23.2001C169 22.8001 168.5 22.5001 168 22.2001C167.5 22.0001 166.9 21.8 166.4 21.8C165.8 21.8 165.3 21.9001 164.7 22.2001C164.1 22.4001 163.6 22.8001 163.2 23.2001C162.8 23.6001 162.4 24.1001 162.1 24.7001C161.8 25.3001 161.7 25.9 161.7 26.5V37.9001Z" fill="white"/>
<path d="M214.6 37.8C214.6 38.5 214.4 39.1 214 39.5C213.6 39.9 213 40.1 212.3 40.1C211.7 40.1 211.1 39.9 210.7 39.5C210.3 39.1 210.1 38.5 210.1 37.8V37.7001C209.7 38.1 209.3 38.4 208.8 38.8C208.3 39.2 207.8 39.5 207.2 39.7001C206.6 40 206 40.2 205.3 40.3C204.6 40.5 204 40.5 203.3 40.5C201.6 40.5 200.1 40.2 198.7 39.6C197.3 39 196.1 38.2 195 37.1C194 36.1 193.2 34.8001 192.6 33.4001C192 32.0001 191.7 30.5 191.7 28.9C191.7 27.3 192 25.8 192.6 24.4C193.2 23 194 21.8001 195 20.7001C196 19.7001 197.3 18.8001 198.7 18.2001C200.1 17.6001 201.7 17.3 203.3 17.3C204.8 17.3 206.1 17.6 207.2 18C208.3 18.5 209.3 19.2 210 20C210 19.3 210.2 18.8 210.6 18.4C211 18 211.6 17.8 212.2 17.8C212.9 17.8 213.5 18 213.9 18.4C214.3 18.8 214.5 19.4 214.5 20L214.6 37.8ZM203.4 22C202.4 22 201.5 22.2 200.6 22.6C199.7 23.0001 199 23.5001 198.4 24.1C197.8 24.7 197.3 25.5 196.9 26.4C196.5 27.3 196.3 28.2001 196.3 29.2001C196.3 30.2001 196.5 31.1 196.9 31.9C197.3 32.8 197.8 33.5 198.4 34.1C199 34.7 199.8 35.2 200.6 35.6C201.5 36 202.4 36.2001 203.4 36.2001C204.3 36.2001 205.2 36 206.1 35.6C206.9 35.2 207.6 34.7 208.2 34.1C208.8 33.5 209.3 32.7 209.6 31.9C209.9 31 210.1 30.1 210.1 29.2001C210.1 28.2001 209.9 27.3 209.6 26.4C209.3 25.5 208.8 24.8 208.2 24.1C207.6 23.5001 206.9 23.0001 206.1 22.6C205.2 22.1 204.3 22 203.4 22Z" fill="white"/>
<path d="M229.3 17.4C230 17.4 230.7 17.5 231.4 17.7C232.1 17.9 232.7 18.1 233.3 18.4C233.9 18.7 234.4 19 234.9 19.4C235.4 19.8 235.8 20.1 236.2 20.5C236.3 19.6 236.5 19 236.8 18.6C237.2 18.2 237.8 18 238.6 18C239.2 18 239.6 18.2 240 18.5C240.4 18.9 240.6 19.3 240.6 19.9V38.4C240.6 39.8 240.4 41.3 240 42.6C239.6 44 238.9 45.2 237.9 46.3C237 47.4 235.8 48.3 234.3 48.9C232.8 49.6 231.1 49.9 229 49.9C228.2 49.9 227.6 49.7 227.2 49.3C226.8 48.9 226.6 48.3 226.6 47.6C226.6 46.9 226.8 46.4 227.2 45.9C227.6 45.5 228.2 45.3 228.9 45.3C230.3 45.3 231.4 45.1 232.3 44.7C233.2 44.3 234 43.7 234.5 43.1C235.1 42.4 235.4 41.6 235.7 40.7C235.9 39.8 236 38.8 236 37.7C235.3 38.6 234.4 39.3 233.3 39.8C232.2 40.3 230.9 40.5 229.3 40.5C227.8 40.5 226.4 40.2 224.9 39.6C223.5 39 222.3 38.2 221.2 37.1C220.1 36.1 219.3 34.8 218.6 33.4C218 32 217.6 30.5 217.6 28.9C217.6 27.3 217.9 25.8 218.6 24.4C219.2 23 220.1 21.8 221.2 20.7C222.3 19.7 223.5 18.8 224.9 18.2C226.3 17.7 227.8 17.4 229.3 17.4ZM229.3 36.1C230.2 36.1 231.1 35.9 232 35.5C232.8 35.1 233.5 34.6 234.1 34C234.7 33.4 235.2 32.6 235.5 31.8C235.8 30.9 236 30 236 29.1C236 28.1 235.8 27.2 235.5 26.4C235.2 25.5 234.7 24.8 234.1 24.2C233.5 23.6 232.8 23.1 232 22.7C231.2 22.3 230.3 22.1 229.3 22.1C228.3 22.1 227.4 22.3 226.5 22.7C225.6 23.1 224.9 23.6 224.3 24.2C223.7 24.8 223.2 25.6 222.8 26.4C222.4 27.3 222.2 28.2 222.2 29.1C222.2 30 222.4 31 222.8 31.8C223.2 32.7 223.7 33.4 224.3 34C224.9 34.6 225.7 35.1 226.5 35.5C227.3 35.9 228.3 36.1 229.3 36.1Z" fill="white"/>
<path d="M255.1 17.4C256.7 17.4 258.2 17.7 259.6 18.3C261 18.9 262.2 19.7 263.3 20.7C264.3 21.7 265.2 22.9 265.8 24.2C266.4 25.6 266.7 27 266.7 28.5C266.7 29.3 266.5 29.8 266.1 30.2C265.7 30.6 265.2 30.8 264.4 30.8H248.4C248.5 31.5 248.8 32.2 249.2 32.8C249.6 33.4 250.1 34 250.8 34.4C251.4 34.9 252.1 35.2 252.8 35.5C253.5 35.8 254.3 35.9 255 35.9C256 35.9 256.9 35.7 257.7 35.4C258.5 35.1 259.2 34.6 259.9 33.9C260.2 33.7 260.5 33.5 260.8 33.3C261.1 33.2 261.4 33.1 261.7 33.1C262.3 33.1 262.8 33.3 263.2 33.8C263.6 34.2 263.8 34.8 263.8 35.4C263.8 35.7 263.8 36 263.7 36.3C263.6 36.6 263.5 36.9 263.2 37.1C262.2 38.2 261 39.1 259.6 39.6C258.2 40.2 256.7 40.4 255.1 40.4C253.5 40.4 252 40.1 250.6 39.5C249.2 38.9 248 38.1 246.9 37C245.8 36 245 34.7 244.4 33.3C243.8 31.9 243.5 30.4 243.5 28.8C243.5 27.2 243.8 25.7 244.4 24.3C245 22.9 245.8 21.7 246.9 20.6C247.9 19.6 249.2 18.7 250.6 18.1C252 17.7 253.5 17.4 255.1 17.4ZM255.1 22C254.3 22 253.6 22.1 252.9 22.4C252.2 22.7 251.5 23 250.9 23.5C250.3 24 249.8 24.5 249.4 25.2C249 25.8 248.7 26.5 248.5 27.2H261.7C261.6 26.5 261.3 25.8 260.9 25.2C260.5 24.6 260 24 259.4 23.5C258.8 23 258.1 22.7 257.4 22.4C256.6 22.1 255.9 22 255.1 22Z" fill="white"/>
</svg>
