<svg width="267" height="51" viewBox="0 0 267 51" fill="none" xmlns="http://www.w3.org/2000/svg">
<path d="M47.7415 12.7145V27.0555C47.1457 26.1092 46.4456 25.2303 45.6444 24.4289C44.2665 23.0504 42.6619 21.9684 40.8745 21.2118C39.0231 20.4283 37.0572 20.0309 35.033 20.0309H22.3223V12.7145C22.3223 5.69217 28.0123 0 35.0319 0C38.5417 0 41.7183 1.42332 44.0185 3.72444C46.3188 6.02443 47.7415 9.20334 47.7415 12.7145Z" fill="#6F4BE0"/>
<path d="M27.0429 47.7598H12.7096C5.68999 47.7598 0 42.0665 0 35.0442C0 31.533 1.42278 28.3553 3.72301 26.0542C6.02325 23.753 9.19981 22.3297 12.7096 22.3297H20.0244V35.0442C20.0244 37.0703 20.4216 39.0369 21.2037 40.8902C21.9599 42.6783 23.0416 44.2835 24.4195 45.6619C25.2195 46.4622 26.0981 47.1638 27.0429 47.7598Z" fill="#1EF4C4"/>
<path d="M50.0397 35.0444C50.0397 37.0705 49.6425 39.0371 48.8593 40.8903C48.103 42.6785 47.0213 44.2836 45.6434 45.6621C44.2655 47.0405 42.661 48.1226 40.8735 48.8791C39.0221 49.6626 37.0562 50.06 35.032 50.06C33.0067 50.06 31.0409 49.6626 29.1894 48.8791C28.441 48.5626 27.724 48.1888 27.0441 47.76C26.0982 47.164 25.2207 46.4635 24.4195 45.6621C23.0416 44.2836 21.96 42.6785 21.2037 40.8903C20.4205 39.0371 20.0244 37.0716 20.0244 35.0444V20.031H35.032C37.0574 20.031 39.0221 20.4284 40.8735 21.2119C42.661 21.9684 44.2655 23.0505 45.6434 24.4289C46.4446 25.2304 47.1459 26.1093 47.7406 27.0556C48.1692 27.7358 48.5428 28.452 48.8581 29.1995C49.6425 31.0517 50.0397 33.0183 50.0397 35.0444Z" fill="#FF526B"/>
<path d="M87.6233 22.4241V13.3173C87.6233 12.6337 87.8264 12.0893 88.2337 11.6818C88.641 11.2743 89.1987 11.0712 89.9089 11.0712C90.5923 11.0712 91.1365 11.2755 91.5438 11.6818C91.9511 12.0893 92.1542 12.6348 92.1542 13.3173V37.8775C92.1542 38.5869 91.95 39.1459 91.5438 39.5534C91.1365 39.9608 90.5912 40.164 89.9089 40.164C89.1998 40.164 88.641 39.9608 88.2337 39.5534C87.8264 39.1459 87.6233 38.588 87.6233 37.8775V26.9186H77.693V37.8775C77.693 38.5869 77.4888 39.1459 77.0826 39.5534C76.6753 39.9608 76.1176 40.164 75.4074 40.164C74.7768 40.164 74.2449 39.9608 73.8118 39.5534C73.3787 39.1459 73.1621 38.588 73.1621 37.8775V13.3173C73.1621 12.6337 73.3787 12.0893 73.8118 11.6818C74.2449 11.2743 74.7768 11.0712 75.4074 11.0712C76.1165 11.0712 76.6742 11.2755 77.0826 11.6818C77.4899 12.0893 77.693 12.6348 77.693 13.3173V22.4241H87.6233Z" fill="#3D3D3D"/>
<path d="M107.325 17.4569C108.927 17.4569 110.431 17.7656 111.837 18.383C113.241 19.0003 114.47 19.8355 115.521 20.8861C116.572 21.9379 117.4 23.1659 118.005 24.5724C118.608 25.9789 118.911 27.483 118.911 29.086C118.911 30.6889 118.609 32.1941 118.005 33.5995C117.4 35.006 116.573 36.2284 115.521 37.2656C114.47 38.3039 113.243 39.1255 111.837 39.7295C110.431 40.3334 108.927 40.6364 107.325 40.6364C105.722 40.6364 104.218 40.3345 102.813 39.7295C101.407 39.1255 100.178 38.3039 99.128 37.2656C98.0767 36.2273 97.2497 35.006 96.6449 33.5995C96.0401 32.1941 95.7383 30.6889 95.7383 29.086C95.7383 27.483 96.0401 25.9789 96.6449 24.5724C97.2486 23.167 98.0767 21.9379 99.128 20.8861C100.178 19.8355 101.407 19.0003 102.813 18.383C104.218 17.7656 105.722 17.4569 107.325 17.4569ZM107.325 21.9907C106.326 21.9907 105.4 22.1748 104.546 22.5429C103.693 22.9111 102.951 23.4174 102.32 24.0605C101.69 24.7049 101.19 25.4603 100.822 26.3269C100.454 27.1946 100.27 28.1139 100.27 29.086C100.27 30.058 100.454 30.9717 100.822 31.826C101.19 32.6802 101.69 33.4222 102.32 34.053C102.951 34.6838 103.693 35.1833 104.546 35.5515C105.4 35.9197 106.326 36.1038 107.325 36.1038C108.296 36.1038 109.21 35.9197 110.064 35.5515C110.918 35.1833 111.666 34.6838 112.31 34.053C112.953 33.4222 113.459 32.6802 113.827 31.826C114.195 30.9717 114.379 30.0592 114.379 29.086C114.379 28.1139 114.195 27.1934 113.827 26.3269C113.459 25.4592 112.953 24.7049 112.31 24.0605C111.666 23.4174 110.918 22.9111 110.064 22.5429C109.21 22.1748 108.296 21.9907 107.325 21.9907Z" fill="#3D3D3D"/>
<path d="M126.476 37.9166C126.476 38.626 126.271 39.1783 125.865 39.5723C125.458 39.9663 124.9 40.1639 124.19 40.1639C123.559 40.1639 123.028 39.9663 122.594 39.5723C122.161 39.1783 121.945 38.626 121.945 37.9166V19.9399C121.945 19.336 122.115 18.8555 122.458 18.5008C122.799 18.1461 123.259 17.9688 123.837 17.9688C125.124 17.9688 125.872 18.5738 126.083 19.7827C126.687 18.9689 127.443 18.3774 128.348 18.0092C129.255 17.641 130.181 17.4569 131.127 17.4569C131.757 17.4569 132.4 17.5231 133.058 17.6545C133.714 17.7858 134.338 17.9834 134.929 18.246C135.521 18.5087 136.072 18.8567 136.584 19.2911C137.097 19.7243 137.524 20.2306 137.865 20.8087C138.627 19.6256 139.638 18.7725 140.899 18.246C142.16 17.7207 143.421 17.458 144.682 17.458C145.811 17.458 146.909 17.6881 147.973 18.1484C149.037 18.6086 149.976 19.2394 150.791 20.0409C151.604 20.8424 152.262 21.8021 152.761 22.919C153.259 24.0359 153.51 25.2515 153.51 26.566V37.92C153.51 38.6294 153.305 39.1817 152.899 39.5757C152.492 39.9697 151.947 40.1672 151.264 40.1672C150.608 40.1672 150.068 39.9697 149.649 39.5757C149.228 39.1817 149.018 38.6294 149.018 37.92V26.5637C149.018 25.9071 148.9 25.302 148.663 24.7498C148.427 24.1975 148.105 23.7115 147.698 23.2916C147.291 22.8718 146.824 22.5429 146.299 22.3061C145.773 22.0692 145.236 21.9514 144.683 21.9514C144.106 21.9514 143.541 22.0692 142.989 22.3061C142.437 22.5429 141.938 22.8718 141.491 23.2916C141.045 23.7126 140.683 24.1986 140.407 24.7498C140.131 25.302 139.993 25.9071 139.993 26.5637V37.9177C139.993 38.6272 139.789 39.1794 139.383 39.5734C138.976 39.9674 138.418 40.165 137.708 40.165C137.077 40.165 136.551 39.9674 136.131 39.5734C135.71 39.1794 135.5 38.6272 135.5 37.9177V26.5637C135.5 25.9071 135.376 25.302 135.126 24.7498C134.875 24.1975 134.548 23.7115 134.141 23.2916C133.733 22.8718 133.266 22.5429 132.741 22.3061C132.215 22.0692 131.678 21.9514 131.126 21.9514C130.573 21.9514 130.016 22.0692 129.45 22.3061C128.885 22.5429 128.387 22.8718 127.952 23.2916C127.519 23.7126 127.165 24.1986 126.889 24.7498C126.613 25.3009 126.475 25.9071 126.475 26.5637V37.9166H126.476Z" fill="#3D3D3D"/>
<path d="M161.903 37.9166C161.903 38.626 161.699 39.1783 161.293 39.5723C160.885 39.9663 160.328 40.1639 159.617 40.1639C158.987 40.1639 158.455 39.9663 158.022 39.5723C157.589 39.1783 157.372 38.626 157.372 37.9166V19.9399C157.372 19.336 157.543 18.8555 157.885 18.5008C158.226 18.1461 158.686 17.9688 159.264 17.9688C160.551 17.9688 161.299 18.5738 161.51 19.7827C162.114 18.9689 162.87 18.3774 163.776 18.0092C164.682 17.641 165.608 17.4569 166.554 17.4569C167.185 17.4569 167.827 17.5231 168.485 17.6545C169.141 17.7858 169.765 17.9834 170.357 18.246C170.948 18.5087 171.499 18.8567 172.012 19.2911C172.524 19.7243 172.951 20.2306 173.292 20.8087C174.054 19.6256 175.065 18.7725 176.326 18.246C177.587 17.7207 178.848 17.458 180.11 17.458C181.238 17.458 182.336 17.6881 183.401 18.1484C184.464 18.6086 185.403 19.2394 186.218 20.0409C187.032 20.8424 187.689 21.8021 188.188 22.919C188.687 24.0359 188.937 25.2515 188.937 26.566V37.92C188.937 38.6294 188.733 39.1817 188.326 39.5757C187.919 39.9697 187.374 40.1672 186.692 40.1672C186.035 40.1672 185.496 39.9697 185.076 39.5757C184.655 39.1817 184.445 38.6294 184.445 37.92V26.5637C184.445 25.9071 184.327 25.302 184.091 24.7498C183.854 24.1975 183.532 23.7115 183.126 23.2916C182.718 22.8718 182.252 22.5429 181.726 22.3061C181.2 22.0692 180.663 21.9514 180.111 21.9514C179.533 21.9514 178.968 22.0692 178.416 22.3061C177.864 22.5429 177.365 22.8718 176.918 23.2916C176.472 23.7126 176.111 24.1986 175.835 24.7498C175.559 25.302 175.42 25.9071 175.42 26.5637V37.9177C175.42 38.6272 175.216 39.1794 174.81 39.5734C174.403 39.9674 173.845 40.165 173.135 40.165C172.504 40.165 171.978 39.9674 171.558 39.5734C171.138 39.1794 170.928 38.6272 170.928 37.9177V26.5637C170.928 25.9071 170.803 25.302 170.553 24.7498C170.303 24.1975 169.975 23.7115 169.568 23.2916C169.16 22.8718 168.694 22.5429 168.169 22.3061C167.642 22.0692 167.105 21.9514 166.553 21.9514C166.001 21.9514 165.443 22.0692 164.878 22.3061C164.312 22.5429 163.814 22.8718 163.38 23.2916C162.946 23.7126 162.592 24.1986 162.316 24.7498C162.04 25.3009 161.902 25.9071 161.902 26.5637V37.9166H161.903Z" fill="#3D3D3D"/>
<path d="M214.905 37.8774C214.905 38.5869 214.7 39.1459 214.294 39.5533C213.887 39.9608 213.329 40.164 212.619 40.164C211.988 40.164 211.456 39.9608 211.023 39.5533C210.59 39.1459 210.374 38.588 210.374 37.8774V37.7596C210.006 38.1278 209.579 38.4892 209.093 38.8439C208.607 39.1986 208.069 39.5084 207.478 39.77C206.886 40.0326 206.262 40.2425 205.606 40.4008C204.948 40.558 204.292 40.6376 203.636 40.6376C201.954 40.6376 200.404 40.3357 198.986 39.7307C197.567 39.1257 196.346 38.3051 195.321 37.2668C194.297 36.2285 193.494 35.0072 192.918 33.6007C192.34 32.1954 192.05 30.6901 192.05 29.0872C192.05 27.4843 192.339 25.9801 192.918 24.5736C193.496 23.1683 194.303 21.9391 195.341 20.8874C196.379 19.8367 197.607 19.0016 199.026 18.3842C200.444 17.7668 201.982 17.4581 203.637 17.4581C205.108 17.4581 206.408 17.7084 207.538 18.2068C208.667 18.7063 209.613 19.3765 210.376 20.2172C210.376 19.5336 210.592 18.9892 211.026 18.5817C211.459 18.1743 211.991 17.9711 212.621 17.9711C213.33 17.9711 213.888 18.1754 214.296 18.5817C214.704 18.9892 214.907 19.5347 214.907 20.2172V37.8774H214.905ZM203.634 21.9908C202.636 21.9908 201.71 22.1749 200.856 22.543C200.002 22.9112 199.261 23.4175 198.63 24.0606C197.999 24.705 197.5 25.4604 197.132 26.327C196.764 27.1946 196.58 28.114 196.58 29.0861C196.58 30.0581 196.764 30.9718 197.132 31.8261C197.5 32.6803 197.999 33.4223 198.63 34.0531C199.261 34.6839 200.002 35.1834 200.856 35.5516C201.71 35.9198 202.636 36.1039 203.634 36.1039C204.58 36.1039 205.467 35.9198 206.295 35.5516C207.123 35.1834 207.832 34.6839 208.422 34.0531C209.014 33.4223 209.479 32.6803 209.822 31.8261C210.163 30.9718 210.334 30.0593 210.334 29.0861C210.334 28.114 210.163 27.1935 209.822 26.327C209.479 25.4593 209.014 24.705 208.422 24.0606C207.831 23.4175 207.122 22.9112 206.295 22.543C205.467 22.1749 204.579 21.9908 203.634 21.9908Z" fill="#3D3D3D"/>
<path d="M229.524 17.4569C230.233 17.4569 230.923 17.5422 231.593 17.7128C232.263 17.8846 232.894 18.1136 233.485 18.4032C234.076 18.6928 234.621 19.0205 235.12 19.3887C235.619 19.7569 236.052 20.1374 236.42 20.5314C236.473 19.6637 236.683 19.0205 237.051 18.5996C237.419 18.1798 238.023 17.9688 238.864 17.9688C239.416 17.9688 239.875 18.1461 240.243 18.5008C240.611 18.8555 240.795 19.336 240.795 19.9399V38.5082C240.795 39.954 240.579 41.3661 240.146 42.7456C239.712 44.1251 239.022 45.3599 238.077 46.451C237.131 47.5409 235.929 48.4153 234.471 49.072C233.014 49.7286 231.26 50.0575 229.21 50.0575C228.395 50.0575 227.785 49.8532 227.378 49.4469C226.97 49.0394 226.767 48.4815 226.767 47.771C226.767 47.0874 226.97 46.5351 227.378 46.1153C227.785 45.6944 228.343 45.4845 229.053 45.4845C230.418 45.4845 231.562 45.2802 232.481 44.8738C233.4 44.4664 234.136 43.9209 234.688 43.2384C235.24 42.5548 235.627 41.7466 235.85 40.8138C236.074 39.881 236.185 38.8887 236.185 37.8369C235.501 38.7304 234.608 39.4208 233.505 39.9068C232.402 40.3928 231.075 40.6364 229.525 40.6364C228.027 40.6364 226.575 40.3345 225.171 39.7295C223.765 39.1256 222.53 38.2971 221.467 37.2454C220.403 36.1947 219.549 34.9656 218.905 33.5591C218.261 32.1537 217.94 30.6485 217.94 29.0455C217.94 27.4426 218.261 25.9385 218.905 24.532C219.548 23.1266 220.403 21.8975 221.467 20.8457C222.53 19.7951 223.765 18.9667 225.171 18.3616C226.575 17.7589 228.027 17.4569 229.524 17.4569ZM229.524 36.1038C230.47 36.1038 231.356 35.9197 232.185 35.5515C233.013 35.1833 233.722 34.6782 234.312 34.0339C234.903 33.3907 235.369 32.6409 235.711 31.7867C236.052 30.9325 236.224 30.0199 236.224 29.0467C236.224 28.0746 236.052 27.1609 235.711 26.3067C235.369 25.4524 234.903 24.7037 234.312 24.0594C233.721 23.4162 233.012 22.91 232.185 22.5418C231.356 22.1736 230.47 21.9895 229.524 21.9895C228.526 21.9895 227.6 22.1736 226.746 22.5418C225.892 22.91 225.15 23.4162 224.52 24.0594C223.889 24.7037 223.39 25.4524 223.022 26.3067C222.654 27.1609 222.47 28.0746 222.47 29.0467C222.47 30.0187 222.654 30.9325 223.022 31.7867C223.39 32.6409 223.889 33.3896 224.52 34.0339C225.15 34.6782 225.892 35.1845 226.746 35.5515C227.6 35.9197 228.526 36.1038 229.524 36.1038Z" fill="#3D3D3D"/>
<path d="M255.415 17.4569C256.991 17.4569 258.482 17.7589 259.887 18.3639C261.292 18.9689 262.521 19.7771 263.572 20.7885C264.623 21.801 265.457 22.983 266.075 24.3367C266.692 25.6904 267 27.116 267 28.6145C267 29.3767 266.803 29.9548 266.409 30.3488C266.015 30.7428 265.463 30.9403 264.754 30.9403H248.754C248.886 31.6767 249.162 32.3591 249.582 32.99C250.002 33.6208 250.522 34.1664 251.139 34.6255C251.756 35.0857 252.432 35.4471 253.169 35.7098C253.903 35.9725 254.653 36.1038 255.415 36.1038C256.387 36.1038 257.28 35.9332 258.094 35.5908C258.908 35.2496 259.632 34.7624 260.262 34.1327C260.525 33.8958 260.814 33.7061 261.13 33.5613C261.445 33.4177 261.747 33.3447 262.036 33.3447C262.64 33.3447 263.146 33.5681 263.553 34.0148C263.961 34.4616 264.164 34.9869 264.164 35.5919C264.164 35.9074 264.124 36.2093 264.046 36.4989C263.967 36.7885 263.809 37.0512 263.573 37.2869C262.549 38.4173 261.341 39.258 259.948 39.8103C258.556 40.3625 257.045 40.6387 255.416 40.6387C253.814 40.6387 252.309 40.3367 250.904 39.7317C249.498 39.1278 248.27 38.3061 247.219 37.2678C246.168 36.2295 245.341 35.0082 244.736 33.6018C244.131 32.1964 243.83 30.6911 243.83 29.0882C243.83 27.4853 244.131 25.9811 244.736 24.5746C245.34 23.1693 246.168 21.9402 247.219 20.8884C248.27 19.8377 249.498 19.0026 250.904 18.3852C252.308 17.7656 253.813 17.4569 255.415 17.4569ZM255.415 21.9907C254.653 21.9907 253.903 22.122 253.169 22.3847C252.432 22.6473 251.769 23.0155 251.178 23.4881C250.587 23.9606 250.081 24.5129 249.661 25.1438C249.24 25.7746 248.952 26.4582 248.794 27.1934H262.034C261.903 26.4582 261.627 25.7746 261.206 25.1438C260.785 24.5129 260.273 23.9606 259.669 23.4881C259.064 23.0155 258.394 22.6473 257.659 22.3847C256.925 22.122 256.177 21.9907 255.415 21.9907Z" fill="#3D3D3D"/>
</svg>
